<svg xmlns="http://www.w3.org/2000/svg" viewBox="0 0 800 450">
  <defs>
    <style>
      .bg { fill: #0d1117; }
      .process { fill: #00f0ff; stroke: #00f0ff; stroke-width: 2; fill-opacity: 0.1; }
      .entity { fill: #ff0000; stroke: #ff0000; stroke-width: 2; fill-opacity: 0.1; }
      .text-main { fill: #ffffff; font-family: 'Inter', monospace; font-size: 16px; font-weight: bold; text-anchor: middle; }
      .text-label { fill: #aaaaaa; font-family: 'Inter', monospace; font-size: 12px; text-anchor: middle; }
      .line { stroke: #00f0ff; stroke-width: 2; marker-end: url(#arrow); fill: none; }
    </style>
    <marker id="arrow" viewBox="0 0 10 10" refX="10" refY="5" markerWidth="6" markerHeight="6" orient="auto-start-reverse">
      <path d="M 0 0 L 10 5 L 0 10 z" fill="#00f0ff" />
    </marker>
  </defs>
  
  <rect width="100%" height="100%" class="bg" />

  <!-- Process -->
  <circle cx="400" cy="225" r="90" class="process" />
  <text x="400" y="215" class="text-main">Automated Inventory</text>
  <text x="400" y="235" class="text-main">Tracking System</text>
  <text x="400" y="175" class="text-label">0.0</text>

  <!-- Entities -->
  <rect x="50" y="200" width="120" height="60" class="entity" />
  <text x="110" y="235" class="text-main">Customer</text>

  <rect x="630" y="100" width="120" height="60" class="entity" />
  <text x="690" y="135" class="text-main">Supplier</text>

  <rect x="630" y="300" width="120" height="60" class="entity" />
  <text x="690" y="335" class="text-main">Manager</text>

  <!-- Data Flows -->
  <!-- Customer to System -->
  <path d="M 170 215 L 305 215" class="line" />
  <text x="240" y="205" class="text-label">Customer Order</text>
  
  <!-- System to Customer -->
  <path d="M 305 235 L 170 235" class="line" />
  <text x="240" y="255" class="text-label">Invoice &amp; Confirm</text>

  <!-- Supplier to System -->
  <path d="M 630 130 L 470 180" class="line" />
  <text x="560" y="145" class="text-label">Delivery Arrival</text>

  <!-- System to Supplier -->
  <path d="M 460 160 L 650 110" class="line" />
  <text x="520" y="125" class="text-label">Purchase Order</text>

  <!-- Manager to System -->
  <path d="M 630 320 L 470 270" class="line" />
  <text x="560" y="315" class="text-label">Report Request</text>

  <!-- System to Manager -->
  <path d="M 460 290 L 650 340" class="line" />
  <text x="520" y="335" class="text-label">System Reports &amp; Alerts</text>

</svg>
